<svg xmlns="http://www.w3.org/2000/svg" viewBox="0 0 120 120" width="100%" height="100%">
  <defs>
    <linearGradient id="nsGrad" x1="0%" y1="0%" x2="100%" y2="100%">
      <stop offset="0%" stop-color="#3b82f6" />
      <stop offset="50%" stop-color="#6366f1" />
      <stop offset="100%" stop-color="#ff385c" />
    </linearGradient>
    <filter id="shadow" x="-20%" y="-20%" width="140%" height="140%">
      <feDropShadow dx="0" dy="4" stdDeviation="6" flood-color="#3b82f6" flood-opacity="0.35"/>
    </filter>
  </defs>
  
  <!-- Outer Rounded Tech Squircle -->
  <rect x="10" y="10" width="100" height="100" rx="28" fill="url(#nsGrad)" filter="url(#shadow)"/>
  <rect x="13" y="13" width="94" height="94" rx="25" fill="none" stroke="rgba(255,255,255,0.4)" stroke-width="1.5"/>
  
  <!-- Dynamic Geometric Modern N -->
  <g fill="#ffffff">
    <path d="M36 34 C36 31.8 37.8 30 40 30 L44 30 C46.2 30 48 31.8 48 34 L48 58 L72 32 C73.5 30.7 75.7 30.7 77.2 32 C78.4 33 79 34.5 79 36 L79 86 C79 88.2 77.2 90 75 90 L71 90 C68.8 90 67 88.2 67 86 L67 62 L43 88 C41.5 89.3 39.3 89.3 37.8 88 C36.6 87 36 85.5 36 84 Z" />
    <circle cx="79" cy="36" r="4.5" fill="#ffffff" />
    <circle cx="36" cy="84" r="4.5" fill="#ffffff" />
  </g>
</svg>